<svg width="288" height="272" viewBox="0 0 288 272" fill="none" xmlns="http://www.w3.org/2000/svg">
<g clip-path="url(#clip0_1_70)">
<path d="M139.833 29.6667C139.47 29.6672 139.11 29.7471 138.781 29.9008C138.451 30.0546 138.159 30.2784 137.924 30.5567C137.69 30.835 137.519 31.161 137.424 31.5121C137.329 31.8632 137.312 32.2308 137.373 32.5893C137.435 32.9478 137.574 33.2886 137.78 33.5879C137.987 33.8872 138.257 34.1377 138.57 34.322C138.884 34.5063 139.234 34.62 139.596 34.655C139.958 34.6901 140.323 34.6457 140.667 34.525" stroke="white" stroke-width="1.25" stroke-linecap="round" stroke-linejoin="round"/>
<path d="M137.553 31.0042C137.055 30.7641 136.624 30.4036 136.299 29.9552C135.974 29.5069 135.767 28.9848 135.694 28.436C135.622 27.8873 135.688 27.3292 135.885 26.8121C136.082 26.295 136.405 25.8352 136.825 25.4742M136.85 25.4067C136.577 24.9977 136.457 24.5052 136.512 24.0164C136.567 23.5276 136.793 23.0741 137.15 22.736C137.507 22.3979 137.973 22.1971 138.464 22.1691C138.955 22.1412 139.44 22.2879 139.833 22.5833M140.032 22.6375C139.899 22.355 139.831 22.0463 139.833 21.7341C139.836 21.422 139.908 21.1143 140.046 20.834C140.183 20.5536 140.382 20.3077 140.627 20.1144C140.872 19.9211 141.157 19.7854 141.462 19.7172C141.767 19.6491 142.083 19.6503 142.387 19.7208C142.691 19.7912 142.975 19.9291 143.219 20.1243C143.463 20.3194 143.659 20.5668 143.795 20.8482C143.93 21.1296 144 21.4378 144 21.75V34.6667C144 35.1087 143.824 35.5326 143.512 35.8452C143.199 36.1577 142.775 36.3333 142.333 36.3333C141.891 36.3333 141.467 36.1577 141.155 35.8452C140.842 35.5326 140.667 35.1087 140.667 34.6667M144 23.8333C144 24.4964 144.263 25.1323 144.732 25.6011C145.201 26.0699 145.837 26.3333 146.5 26.3333M148.167 29.6667C148.53 29.6672 148.89 29.7471 149.219 29.9008C149.549 30.0546 149.841 30.2784 150.075 30.5567C150.31 30.8349 150.48 31.161 150.576 31.5121C150.671 31.8632 150.688 32.2308 150.627 32.5893C150.565 32.9478 150.426 33.2886 150.22 33.5879C150.013 33.8872 149.743 34.1377 149.43 34.322C149.116 34.5063 148.766 34.62 148.404 34.655C148.042 34.6901 147.676 34.6457 147.333 34.525" stroke="white" stroke-width="1.25" stroke-linecap="round" stroke-linejoin="round"/>
<path d="M150.447 31.0042C150.945 30.7641 151.376 30.4036 151.701 29.9552C152.025 29.5069 152.233 28.9848 152.306 28.436C152.378 27.8873 152.312 27.3292 152.115 26.8121C151.918 26.295 151.595 25.8352 151.175 25.4742M151.15 25.4067C151.423 24.9977 151.543 24.5052 151.488 24.0164C151.433 23.5276 151.207 23.0741 150.85 22.736C150.493 22.3979 150.027 22.1971 149.536 22.1691C149.045 22.1412 148.56 22.2879 148.167 22.5833M144 21.75C144 21.4378 144.07 21.1296 144.205 20.8482C144.341 20.5668 144.537 20.3194 144.781 20.1243C145.025 19.9291 145.309 19.7912 145.613 19.7208C145.917 19.6503 146.233 19.6491 146.538 19.7172C146.843 19.7854 147.128 19.9211 147.373 20.1144C147.618 20.3077 147.817 20.5536 147.954 20.834C148.092 21.1143 148.164 21.422 148.167 21.7341C148.169 22.0463 148.101 22.355 147.968 22.6375M147.333 34.6667C147.333 35.1087 147.158 35.5326 146.845 35.8452C146.533 36.1577 146.109 36.3333 145.667 36.3333C145.225 36.3333 144.801 36.1577 144.488 35.8452C144.176 35.5326 144 35.1087 144 34.6667" stroke="white" stroke-width="1.25" stroke-linecap="round" stroke-linejoin="round"/>
<rect width="288" height="56" rx="12" fill="#FF5555"/>
<rect width="288" height="56" rx="12" fill="white" fill-opacity="0.95"/>
<path d="M26.8333 26.3333V20.5L20.1666 29.6667H25.1666V35.5L31.8333 26.3333H26.8333Z" stroke="#FF5555" stroke-width="1.25" stroke-linecap="round" stroke-linejoin="round"/>
<path d="M49.35 35V22.454H53.22C54.204 22.454 55.002 22.598 55.614 22.886C56.238 23.174 56.694 23.588 56.982 24.128C57.282 24.656 57.432 25.286 57.432 26.018C57.432 27.098 57.12 27.944 56.496 28.556C55.884 29.168 54.996 29.522 53.832 29.618C53.628 29.63 53.394 29.636 53.13 29.636C52.866 29.636 52.62 29.636 52.392 29.636H51.186V35H49.35ZM56.298 35L53.076 29.42L54.948 29.186L58.404 35H56.298ZM51.186 28.016H53.04C53.544 28.016 53.982 27.956 54.354 27.836C54.738 27.704 55.044 27.494 55.272 27.206C55.5 26.918 55.614 26.528 55.614 26.036C55.614 25.544 55.5 25.16 55.272 24.884C55.044 24.596 54.738 24.392 54.354 24.272C53.97 24.152 53.532 24.092 53.04 24.092H51.186V28.016ZM63.499 35.162C62.779 35.162 62.155 35.042 61.627 34.802C61.099 34.562 60.661 34.232 60.313 33.812C59.965 33.38 59.701 32.894 59.521 32.354C59.353 31.802 59.269 31.226 59.269 30.626C59.269 30.026 59.353 29.45 59.521 28.898C59.689 28.334 59.941 27.836 60.277 27.404C60.613 26.96 61.033 26.612 61.537 26.36C62.053 26.096 62.659 25.964 63.355 25.964C64.051 25.964 64.651 26.084 65.155 26.324C65.659 26.552 66.073 26.876 66.397 27.296C66.721 27.704 66.961 28.166 67.117 28.682C67.285 29.198 67.369 29.744 67.369 30.32C67.369 30.38 67.363 30.494 67.351 30.662C67.351 30.818 67.339 30.968 67.315 31.112H61.033C61.069 31.904 61.309 32.516 61.753 32.948C62.209 33.368 62.809 33.578 63.553 33.578C64.057 33.578 64.507 33.5 64.903 33.344C65.299 33.176 65.665 32.918 66.001 32.57L67.081 33.686C66.733 34.034 66.373 34.316 66.001 34.532C65.641 34.748 65.257 34.904 64.849 35C64.453 35.108 64.003 35.162 63.499 35.162ZM65.623 30.23C65.647 30.134 65.659 30.038 65.659 29.942C65.671 29.846 65.677 29.75 65.677 29.654C65.677 29.378 65.629 29.108 65.533 28.844C65.437 28.58 65.293 28.346 65.101 28.142C64.909 27.926 64.669 27.758 64.381 27.638C64.105 27.506 63.781 27.44 63.409 27.44C62.917 27.44 62.497 27.554 62.149 27.782C61.801 27.998 61.531 28.286 61.339 28.646C61.159 29.006 61.051 29.396 61.015 29.816H66.199L65.623 30.23ZM75.1997 35L75.0557 33.362V29.42C75.0557 28.796 74.8757 28.316 74.5157 27.98C74.1557 27.644 73.6337 27.476 72.9497 27.476C72.4697 27.476 72.0077 27.572 71.5637 27.764C71.1317 27.956 70.7177 28.268 70.3217 28.7L69.2237 27.566C69.7517 27.014 70.3337 26.612 70.9697 26.36C71.6177 26.096 72.3197 25.964 73.0757 25.964C74.2637 25.964 75.1817 26.27 75.8297 26.882C76.4897 27.482 76.8197 28.328 76.8197 29.42V35H75.1997ZM72.3377 35.162C71.6777 35.162 71.0957 35.042 70.5917 34.802C70.0877 34.562 69.6977 34.232 69.4217 33.812C69.1457 33.38 69.0077 32.882 69.0077 32.318C69.0077 31.826 69.1097 31.406 69.3137 31.058C69.5177 30.698 69.7817 30.422 70.1057 30.23C70.4057 30.038 70.7477 29.906 71.1317 29.834C71.5277 29.75 71.9477 29.708 72.3917 29.708H75.2177V31.04H72.6437C72.4037 31.04 72.1517 31.064 71.8877 31.112C71.6357 31.148 71.4197 31.232 71.2397 31.364C71.0957 31.472 70.9817 31.61 70.8977 31.778C70.8137 31.934 70.7717 32.12 70.7717 32.336C70.7717 32.756 70.9337 33.092 71.2577 33.344C71.5817 33.596 72.0137 33.722 72.5537 33.722C73.0097 33.722 73.4237 33.62 73.7957 33.416C74.1797 33.2 74.4857 32.912 74.7137 32.552C74.9417 32.18 75.0557 31.76 75.0557 31.292L75.6857 32.12C75.5777 32.744 75.3677 33.29 75.0557 33.758C74.7437 34.214 74.3537 34.562 73.8857 34.802C73.4297 35.042 72.9137 35.162 72.3377 35.162ZM82.9215 35.162C82.2495 35.162 81.6495 35.042 81.1215 34.802C80.6055 34.55 80.1675 34.208 79.8075 33.776C79.4595 33.344 79.1955 32.852 79.0155 32.3C78.8355 31.748 78.7455 31.166 78.7455 30.554C78.7455 29.954 78.8355 29.378 79.0155 28.826C79.1955 28.274 79.4595 27.782 79.8075 27.35C80.1675 26.918 80.6055 26.582 81.1215 26.342C81.6495 26.09 82.2495 25.964 82.9215 25.964C83.7855 25.964 84.5355 26.174 85.1715 26.594C85.8195 27.014 86.2935 27.65 86.5935 28.502L85.0455 29.096C84.8895 28.628 84.6375 28.244 84.2895 27.944C83.9415 27.644 83.4855 27.494 82.9215 27.494C82.3695 27.494 81.9135 27.644 81.5535 27.944C81.1935 28.232 80.9295 28.61 80.7615 29.078C80.5935 29.534 80.5095 30.026 80.5095 30.554C80.5095 31.082 80.5935 31.58 80.7615 32.048C80.9295 32.516 81.1935 32.894 81.5535 33.182C81.9135 33.47 82.3695 33.614 82.9215 33.614C83.4855 33.614 83.9415 33.47 84.2895 33.182C84.6375 32.882 84.8895 32.492 85.0455 32.012L86.5935 32.606C86.2935 33.47 85.8195 34.112 85.1715 34.532C84.5355 34.952 83.7855 35.162 82.9215 35.162ZM91.5895 35.162C91.1575 35.162 90.7555 35.078 90.3835 34.91C90.0235 34.742 89.7355 34.472 89.5195 34.1C89.3155 33.716 89.2135 33.224 89.2135 32.624V23.858L90.9955 22.868V32.156C90.9955 32.648 91.0675 33.032 91.2115 33.308C91.3675 33.572 91.6495 33.704 92.0575 33.704C92.1775 33.704 92.3155 33.692 92.4715 33.668C92.6395 33.632 92.8195 33.59 93.0115 33.542V34.91C92.7715 34.994 92.5315 35.054 92.2915 35.09C92.0515 35.138 91.8175 35.162 91.5895 35.162ZM87.4495 27.494V26.126H93.0115V27.494H87.4495ZM94.8212 35V26.126H96.5852V35H94.8212ZM94.6952 24.596V22.454H96.6932V24.596H94.6952ZM102.983 35.162C102.143 35.162 101.393 34.964 100.733 34.568C100.073 34.172 99.5508 33.626 99.1668 32.93C98.7948 32.234 98.6088 31.442 98.6088 30.554C98.6088 29.666 98.7948 28.88 99.1668 28.196C99.5388 27.5 100.055 26.954 100.715 26.558C101.387 26.162 102.143 25.964 102.983 25.964C103.835 25.964 104.585 26.162 105.233 26.558C105.881 26.954 106.391 27.5 106.763 28.196C107.147 28.88 107.339 29.666 107.339 30.554C107.339 31.442 107.147 32.234 106.763 32.93C106.391 33.614 105.875 34.16 105.215 34.568C104.567 34.964 103.823 35.162 102.983 35.162ZM102.983 33.596C103.511 33.596 103.967 33.47 104.351 33.218C104.747 32.966 105.047 32.612 105.251 32.156C105.467 31.7 105.575 31.166 105.575 30.554C105.575 29.93 105.467 29.39 105.251 28.934C105.047 28.478 104.747 28.13 104.351 27.89C103.967 27.638 103.511 27.512 102.983 27.512C102.443 27.512 101.975 27.638 101.579 27.89C101.195 28.142 100.895 28.496 100.679 28.952C100.475 29.396 100.373 29.93 100.373 30.554C100.373 31.166 100.475 31.7 100.679 32.156C100.895 32.612 101.195 32.966 101.579 33.218C101.975 33.47 102.443 33.596 102.983 33.596ZM109.376 35V26.126H111.158V28.052L110.798 28.16C110.954 27.668 111.176 27.266 111.464 26.954C111.764 26.63 112.112 26.384 112.508 26.216C112.916 26.048 113.354 25.964 113.822 25.964C114.806 25.964 115.574 26.252 116.126 26.828C116.69 27.392 116.972 28.22 116.972 29.312V35H115.208V29.96C115.208 29.108 115.052 28.484 114.74 28.088C114.44 27.692 113.972 27.494 113.336 27.494C112.856 27.494 112.454 27.602 112.13 27.818C111.818 28.034 111.578 28.376 111.41 28.844C111.242 29.312 111.158 29.906 111.158 30.626V35H109.376Z" fill="#FF5555"/>
<path opacity="0.5" d="M228.505 38.816L235.003 22.454H236.695L230.179 38.816H228.505ZM246.661 35V25.082L247.309 26.18H243.457V24.416H245.401C245.809 24.416 246.121 24.326 246.337 24.146C246.553 23.954 246.661 23.63 246.661 23.174V22.454H248.911V35H246.661ZM256.913 35.162C256.133 35.162 255.479 35.024 254.951 34.748C254.423 34.472 253.997 34.106 253.673 33.65C253.349 33.182 253.103 32.666 252.935 32.102C252.779 31.538 252.671 30.956 252.611 30.356C252.551 29.756 252.521 29.192 252.521 28.664C252.521 28.148 252.545 27.602 252.593 27.026C252.653 26.438 252.761 25.862 252.917 25.298C253.085 24.734 253.331 24.224 253.655 23.768C253.979 23.312 254.399 22.946 254.915 22.67C255.443 22.394 256.103 22.256 256.895 22.256C257.675 22.256 258.323 22.394 258.839 22.67C259.367 22.934 259.793 23.294 260.117 23.75C260.441 24.206 260.681 24.716 260.837 25.28C261.005 25.844 261.119 26.42 261.179 27.008C261.239 27.584 261.269 28.136 261.269 28.664C261.269 29.216 261.239 29.792 261.179 30.392C261.119 30.992 261.005 31.574 260.837 32.138C260.669 32.702 260.423 33.212 260.099 33.668C259.775 34.124 259.355 34.49 258.839 34.766C258.323 35.03 257.681 35.162 256.913 35.162ZM256.913 33.02C257.477 33.02 257.909 32.828 258.209 32.444C258.509 32.048 258.713 31.526 258.821 30.878C258.929 30.23 258.983 29.516 258.983 28.736C258.983 27.932 258.923 27.206 258.803 26.558C258.695 25.898 258.491 25.376 258.191 24.992C257.891 24.608 257.459 24.416 256.895 24.416C256.451 24.416 256.091 24.53 255.815 24.758C255.539 24.986 255.329 25.298 255.185 25.694C255.053 26.09 254.957 26.552 254.897 27.08C254.849 27.596 254.825 28.148 254.825 28.736C254.825 29.3 254.849 29.84 254.897 30.356C254.957 30.872 255.059 31.328 255.203 31.724C255.347 32.12 255.557 32.438 255.833 32.678C256.109 32.906 256.469 33.02 256.913 33.02ZM266.986 35.162C266.206 35.162 265.552 35.024 265.024 34.748C264.496 34.472 264.07 34.106 263.746 33.65C263.422 33.182 263.176 32.666 263.008 32.102C262.852 31.538 262.744 30.956 262.684 30.356C262.624 29.756 262.594 29.192 262.594 28.664C262.594 28.148 262.618 27.602 262.666 27.026C262.726 26.438 262.834 25.862 262.99 25.298C263.158 24.734 263.404 24.224 263.728 23.768C264.052 23.312 264.472 22.946 264.988 22.67C265.516 22.394 266.176 22.256 266.968 22.256C267.748 22.256 268.396 22.394 268.912 22.67C269.44 22.934 269.866 23.294 270.19 23.75C270.514 24.206 270.754 24.716 270.91 25.28C271.078 25.844 271.192 26.42 271.252 27.008C271.312 27.584 271.342 28.136 271.342 28.664C271.342 29.216 271.312 29.792 271.252 30.392C271.192 30.992 271.078 31.574 270.91 32.138C270.742 32.702 270.496 33.212 270.172 33.668C269.848 34.124 269.428 34.49 268.912 34.766C268.396 35.03 267.754 35.162 266.986 35.162ZM266.986 33.02C267.55 33.02 267.982 32.828 268.282 32.444C268.582 32.048 268.786 31.526 268.894 30.878C269.002 30.23 269.056 29.516 269.056 28.736C269.056 27.932 268.996 27.206 268.876 26.558C268.768 25.898 268.564 25.376 268.264 24.992C267.964 24.608 267.532 24.416 266.968 24.416C266.524 24.416 266.164 24.53 265.888 24.758C265.612 24.986 265.402 25.298 265.258 25.694C265.126 26.09 265.03 26.552 264.97 27.08C264.922 27.596 264.898 28.148 264.898 28.736C264.898 29.3 264.922 29.84 264.97 30.356C265.03 30.872 265.132 31.328 265.276 31.724C265.42 32.12 265.63 32.438 265.906 32.678C266.182 32.906 266.542 33.02 266.986 33.02Z" fill="#303B59"/>
<path d="M205.895 35.18C205.091 35.18 204.329 35.036 203.609 34.748C202.901 34.46 202.325 34.028 201.881 33.452C201.449 32.864 201.233 32.138 201.233 31.274C201.233 30.614 201.377 30.014 201.665 29.474C201.965 28.934 202.409 28.502 202.997 28.178C202.637 27.926 202.349 27.608 202.133 27.224C201.929 26.84 201.827 26.384 201.827 25.856C201.827 25.1 202.019 24.458 202.403 23.93C202.787 23.402 203.291 22.994 203.915 22.706C204.539 22.418 205.199 22.274 205.895 22.274C206.627 22.274 207.299 22.424 207.911 22.724C208.523 23.012 209.015 23.426 209.387 23.966C209.759 24.494 209.945 25.13 209.945 25.874C209.945 26.402 209.843 26.858 209.639 27.242C209.435 27.614 209.153 27.926 208.793 28.178C209.381 28.502 209.819 28.934 210.107 29.474C210.407 30.014 210.557 30.614 210.557 31.274C210.557 32.138 210.335 32.864 209.891 33.452C209.459 34.028 208.889 34.46 208.181 34.748C207.473 35.036 206.711 35.18 205.895 35.18ZM205.895 33.056C206.363 33.056 206.777 32.984 207.137 32.84C207.509 32.684 207.797 32.456 208.001 32.156C208.217 31.856 208.325 31.49 208.325 31.058C208.325 30.626 208.217 30.266 208.001 29.978C207.797 29.678 207.509 29.456 207.137 29.312C206.777 29.156 206.363 29.078 205.895 29.078C205.427 29.078 205.007 29.156 204.635 29.312C204.275 29.456 203.987 29.678 203.771 29.978C203.567 30.266 203.465 30.626 203.465 31.058C203.465 31.49 203.567 31.856 203.771 32.156C203.987 32.456 204.281 32.684 204.653 32.84C205.025 32.984 205.439 33.056 205.895 33.056ZM205.913 27.548C206.453 27.548 206.891 27.41 207.227 27.134C207.563 26.858 207.731 26.492 207.731 26.036C207.731 25.544 207.569 25.154 207.245 24.866C206.921 24.566 206.471 24.416 205.895 24.416C205.535 24.416 205.217 24.482 204.941 24.614C204.665 24.734 204.449 24.914 204.293 25.154C204.149 25.382 204.077 25.664 204.077 26C204.077 26.48 204.245 26.858 204.581 27.134C204.917 27.41 205.361 27.548 205.913 27.548ZM215.986 35.162C215.206 35.162 214.552 35.024 214.024 34.748C213.496 34.472 213.07 34.106 212.746 33.65C212.422 33.182 212.176 32.666 212.008 32.102C211.852 31.538 211.744 30.956 211.684 30.356C211.624 29.756 211.594 29.192 211.594 28.664C211.594 28.148 211.618 27.602 211.666 27.026C211.726 26.438 211.834 25.862 211.99 25.298C212.158 24.734 212.404 24.224 212.728 23.768C213.052 23.312 213.472 22.946 213.988 22.67C214.516 22.394 215.176 22.256 215.968 22.256C216.748 22.256 217.396 22.394 217.912 22.67C218.44 22.934 218.866 23.294 219.19 23.75C219.514 24.206 219.754 24.716 219.91 25.28C220.078 25.844 220.192 26.42 220.252 27.008C220.312 27.584 220.342 28.136 220.342 28.664C220.342 29.216 220.312 29.792 220.252 30.392C220.192 30.992 220.078 31.574 219.91 32.138C219.742 32.702 219.496 33.212 219.172 33.668C218.848 34.124 218.428 34.49 217.912 34.766C217.396 35.03 216.754 35.162 215.986 35.162ZM215.986 33.02C216.55 33.02 216.982 32.828 217.282 32.444C217.582 32.048 217.786 31.526 217.894 30.878C218.002 30.23 218.056 29.516 218.056 28.736C218.056 27.932 217.996 27.206 217.876 26.558C217.768 25.898 217.564 25.376 217.264 24.992C216.964 24.608 216.532 24.416 215.968 24.416C215.524 24.416 215.164 24.53 214.888 24.758C214.612 24.986 214.402 25.298 214.258 25.694C214.126 26.09 214.03 26.552 213.97 27.08C213.922 27.596 213.898 28.148 213.898 28.736C213.898 29.3 213.922 29.84 213.97 30.356C214.03 30.872 214.132 31.328 214.276 31.724C214.42 32.12 214.63 32.438 214.906 32.678C215.182 32.906 215.542 33.02 215.986 33.02Z" fill="#303B59"/>
</g>
<g clip-path="url(#clip1_1_70)">
<rect y="216" width="288" height="56" rx="12" fill="#1125D6"/>
<rect y="216" width="288" height="56" rx="12" fill="white" fill-opacity="0.95"/>
<path d="M53.274 251L48.252 238.454H50.268L54.246 248.768H53.706L57.63 238.454H59.646L54.66 251H53.274ZM61.1064 251V242.126H62.8704V251H61.1064ZM60.9804 240.596V238.454H62.9784V240.596H60.9804ZM68.296 251.162C67.672 251.162 67.12 251.072 66.64 250.892C66.16 250.7 65.746 250.46 65.398 250.172C65.062 249.872 64.792 249.566 64.588 249.254L65.794 248.21C66.022 248.618 66.346 248.972 66.766 249.272C67.198 249.56 67.714 249.704 68.314 249.704C68.842 249.704 69.256 249.596 69.556 249.38C69.868 249.152 70.024 248.858 70.024 248.498C70.024 248.21 69.928 247.982 69.736 247.814C69.544 247.634 69.292 247.49 68.98 247.382C68.668 247.262 68.326 247.16 67.954 247.076C67.618 246.98 67.276 246.872 66.928 246.752C66.58 246.632 66.262 246.482 65.974 246.302C65.698 246.11 65.47 245.87 65.29 245.582C65.122 245.282 65.038 244.916 65.038 244.484C65.038 243.728 65.326 243.122 65.902 242.666C66.49 242.198 67.264 241.964 68.224 241.964C68.908 241.964 69.532 242.108 70.096 242.396C70.66 242.672 71.098 243.086 71.41 243.638L70.312 244.484C70.072 244.088 69.76 243.8 69.376 243.62C69.004 243.44 68.596 243.35 68.152 243.35C67.732 243.35 67.378 243.44 67.09 243.62C66.814 243.788 66.676 244.022 66.676 244.322C66.676 244.538 66.736 244.718 66.856 244.862C66.988 244.994 67.186 245.114 67.45 245.222C67.726 245.318 68.062 245.414 68.458 245.51C68.83 245.594 69.208 245.696 69.592 245.816C69.976 245.936 70.33 246.092 70.654 246.284C70.978 246.476 71.242 246.734 71.446 247.058C71.65 247.382 71.752 247.802 71.752 248.318C71.752 248.882 71.608 249.38 71.32 249.812C71.032 250.232 70.63 250.562 70.114 250.802C69.598 251.042 68.992 251.162 68.296 251.162ZM76.8226 251.162C76.1626 251.162 75.5926 251.03 75.1126 250.766C74.6446 250.49 74.2846 250.1 74.0326 249.596C73.7926 249.08 73.6726 248.456 73.6726 247.724V242.126H75.4366V247.166C75.4366 247.694 75.5026 248.144 75.6346 248.516C75.7666 248.876 75.9706 249.152 76.2466 249.344C76.5346 249.524 76.8946 249.614 77.3266 249.614C77.8306 249.614 78.2386 249.488 78.5506 249.236C78.8746 248.984 79.1146 248.612 79.2706 248.12C79.4266 247.616 79.5046 246.992 79.5046 246.248V242.126H81.2506V251H79.5046V249.092L79.8646 249.164C79.6006 249.824 79.1986 250.322 78.6586 250.658C78.1186 250.994 77.5066 251.162 76.8226 251.162ZM89.5259 251L89.3819 249.362V245.42C89.3819 244.796 89.2019 244.316 88.8419 243.98C88.4819 243.644 87.9599 243.476 87.2759 243.476C86.7959 243.476 86.3339 243.572 85.8899 243.764C85.4579 243.956 85.0439 244.268 84.6479 244.7L83.5499 243.566C84.0779 243.014 84.6599 242.612 85.2959 242.36C85.9439 242.096 86.6459 241.964 87.4019 241.964C88.5899 241.964 89.5079 242.27 90.1559 242.882C90.8159 243.482 91.1459 244.328 91.1459 245.42V251H89.5259ZM86.6639 251.162C86.0039 251.162 85.4219 251.042 84.9179 250.802C84.4139 250.562 84.0239 250.232 83.7479 249.812C83.4719 249.38 83.3339 248.882 83.3339 248.318C83.3339 247.826 83.4359 247.406 83.6399 247.058C83.8439 246.698 84.1079 246.422 84.4319 246.23C84.7319 246.038 85.0739 245.906 85.4579 245.834C85.8539 245.75 86.2739 245.708 86.7179 245.708H89.5439V247.04H86.9699C86.7299 247.04 86.4779 247.064 86.2139 247.112C85.9619 247.148 85.7459 247.232 85.5659 247.364C85.4219 247.472 85.3079 247.61 85.2239 247.778C85.1399 247.934 85.0979 248.12 85.0979 248.336C85.0979 248.756 85.2599 249.092 85.5839 249.344C85.9079 249.596 86.3399 249.722 86.8799 249.722C87.3359 249.722 87.7499 249.62 88.1219 249.416C88.5059 249.2 88.8119 248.912 89.0399 248.552C89.2679 248.18 89.3819 247.76 89.3819 247.292L90.0119 248.12C89.9039 248.744 89.6939 249.29 89.3819 249.758C89.0699 250.214 88.6799 250.562 88.2119 250.802C87.7559 251.042 87.2399 251.162 86.6639 251.162ZM95.3757 251.162C94.8117 251.162 94.3497 250.988 93.9897 250.64C93.6297 250.292 93.4497 249.74 93.4497 248.984V238.454H95.1957V248.642C95.1957 248.954 95.2617 249.182 95.3937 249.326C95.5377 249.458 95.7237 249.524 95.9517 249.524C96.0477 249.524 96.1557 249.518 96.2757 249.506C96.4077 249.482 96.5397 249.446 96.6717 249.398V250.892C96.4557 250.988 96.2277 251.054 95.9877 251.09C95.7597 251.138 95.5557 251.162 95.3757 251.162Z" fill="#1125D6"/>
<path d="M26 246.667C26.4421 246.667 26.866 246.491 27.1786 246.179C27.4911 245.866 27.6667 245.442 27.6667 245C27.6667 244.558 27.4911 244.134 27.1786 243.821C26.866 243.509 26.4421 243.333 26 243.333C25.558 243.333 25.1341 243.509 24.8215 243.821C24.509 244.134 24.3334 244.558 24.3334 245C24.3334 245.442 24.509 245.866 24.8215 246.179C25.1341 246.491 25.558 246.667 26 246.667Z" stroke="#1125D6" stroke-width="1.25" stroke-linecap="round" stroke-linejoin="round"/>
<path d="M33.5 245C31.9258 247.492 29.0983 250 26 250C22.9017 250 20.0742 247.492 18.5 245C20.4158 242.632 22.66 240 26 240C29.34 240 31.5842 242.632 33.5 245Z" stroke="#1125D6" stroke-width="1.25" stroke-linecap="round" stroke-linejoin="round"/>
<path opacity="0.5" d="M228.505 254.816L235.003 238.454H236.695L230.179 254.816H228.505ZM246.661 251V241.082L247.309 242.18H243.457V240.416H245.401C245.809 240.416 246.121 240.326 246.337 240.146C246.553 239.954 246.661 239.63 246.661 239.174V238.454H248.911V251H246.661ZM256.913 251.162C256.133 251.162 255.479 251.024 254.951 250.748C254.423 250.472 253.997 250.106 253.673 249.65C253.349 249.182 253.103 248.666 252.935 248.102C252.779 247.538 252.671 246.956 252.611 246.356C252.551 245.756 252.521 245.192 252.521 244.664C252.521 244.148 252.545 243.602 252.593 243.026C252.653 242.438 252.761 241.862 252.917 241.298C253.085 240.734 253.331 240.224 253.655 239.768C253.979 239.312 254.399 238.946 254.915 238.67C255.443 238.394 256.103 238.256 256.895 238.256C257.675 238.256 258.323 238.394 258.839 238.67C259.367 238.934 259.793 239.294 260.117 239.75C260.441 240.206 260.681 240.716 260.837 241.28C261.005 241.844 261.119 242.42 261.179 243.008C261.239 243.584 261.269 244.136 261.269 244.664C261.269 245.216 261.239 245.792 261.179 246.392C261.119 246.992 261.005 247.574 260.837 248.138C260.669 248.702 260.423 249.212 260.099 249.668C259.775 250.124 259.355 250.49 258.839 250.766C258.323 251.03 257.681 251.162 256.913 251.162ZM256.913 249.02C257.477 249.02 257.909 248.828 258.209 248.444C258.509 248.048 258.713 247.526 258.821 246.878C258.929 246.23 258.983 245.516 258.983 244.736C258.983 243.932 258.923 243.206 258.803 242.558C258.695 241.898 258.491 241.376 258.191 240.992C257.891 240.608 257.459 240.416 256.895 240.416C256.451 240.416 256.091 240.53 255.815 240.758C255.539 240.986 255.329 241.298 255.185 241.694C255.053 242.09 254.957 242.552 254.897 243.08C254.849 243.596 254.825 244.148 254.825 244.736C254.825 245.3 254.849 245.84 254.897 246.356C254.957 246.872 255.059 247.328 255.203 247.724C255.347 248.12 255.557 248.438 255.833 248.678C256.109 248.906 256.469 249.02 256.913 249.02ZM266.986 251.162C266.206 251.162 265.552 251.024 265.024 250.748C264.496 250.472 264.07 250.106 263.746 249.65C263.422 249.182 263.176 248.666 263.008 248.102C262.852 247.538 262.744 246.956 262.684 246.356C262.624 245.756 262.594 245.192 262.594 244.664C262.594 244.148 262.618 243.602 262.666 243.026C262.726 242.438 262.834 241.862 262.99 241.298C263.158 240.734 263.404 240.224 263.728 239.768C264.052 239.312 264.472 238.946 264.988 238.67C265.516 238.394 266.176 238.256 266.968 238.256C267.748 238.256 268.396 238.394 268.912 238.67C269.44 238.934 269.866 239.294 270.19 239.75C270.514 240.206 270.754 240.716 270.91 241.28C271.078 241.844 271.192 242.42 271.252 243.008C271.312 243.584 271.342 244.136 271.342 244.664C271.342 245.216 271.312 245.792 271.252 246.392C271.192 246.992 271.078 247.574 270.91 248.138C270.742 248.702 270.496 249.212 270.172 249.668C269.848 250.124 269.428 250.49 268.912 250.766C268.396 251.03 267.754 251.162 266.986 251.162ZM266.986 249.02C267.55 249.02 267.982 248.828 268.282 248.444C268.582 248.048 268.786 247.526 268.894 246.878C269.002 246.23 269.056 245.516 269.056 244.736C269.056 243.932 268.996 243.206 268.876 242.558C268.768 241.898 268.564 241.376 268.264 240.992C267.964 240.608 267.532 240.416 266.968 240.416C266.524 240.416 266.164 240.53 265.888 240.758C265.612 240.986 265.402 241.298 265.258 241.694C265.126 242.09 265.03 242.552 264.97 243.08C264.922 243.596 264.898 244.148 264.898 244.736C264.898 245.3 264.922 245.84 264.97 246.356C265.03 246.872 265.132 247.328 265.276 247.724C265.42 248.12 265.63 248.438 265.906 248.678C266.182 248.906 266.542 249.02 266.986 249.02Z" fill="#303B59"/>
<path d="M202.421 251L208.181 239.678L208.811 240.542H201.359V238.454H210.413V240.092L204.905 251H202.421ZM215.86 251.162C214.924 251.162 214.108 250.994 213.412 250.658C212.716 250.31 212.17 249.824 211.774 249.2C211.39 248.576 211.198 247.85 211.198 247.022L213.412 246.896C213.412 247.544 213.64 248.06 214.096 248.444C214.564 248.828 215.182 249.02 215.95 249.02C216.442 249.02 216.862 248.948 217.21 248.804C217.558 248.648 217.828 248.432 218.02 248.156C218.212 247.868 218.308 247.532 218.308 247.148C218.308 246.812 218.236 246.53 218.092 246.302C217.96 246.062 217.756 245.87 217.48 245.726C217.216 245.582 216.892 245.48 216.508 245.42C216.136 245.348 215.71 245.312 215.23 245.312V243.566C215.578 243.566 215.896 243.536 216.184 243.476C216.472 243.416 216.718 243.326 216.922 243.206C217.138 243.074 217.3 242.906 217.408 242.702C217.516 242.486 217.57 242.234 217.57 241.946C217.57 241.622 217.498 241.352 217.354 241.136C217.222 240.908 217.024 240.734 216.76 240.614C216.508 240.494 216.202 240.434 215.842 240.434C215.266 240.434 214.81 240.59 214.474 240.902C214.138 241.214 213.964 241.634 213.952 242.162L211.738 242.018C211.738 241.298 211.918 240.656 212.278 240.092C212.638 239.528 213.13 239.09 213.754 238.778C214.39 238.454 215.116 238.292 215.932 238.292C216.7 238.292 217.372 238.442 217.948 238.742C218.536 239.03 218.992 239.432 219.316 239.948C219.652 240.452 219.82 241.04 219.82 241.712C219.82 242.012 219.778 242.288 219.694 242.54C219.622 242.78 219.514 243.008 219.37 243.224C219.238 243.428 219.076 243.608 218.884 243.764C218.692 243.92 218.482 244.058 218.254 244.178C218.578 244.286 218.878 244.436 219.154 244.628C219.442 244.808 219.688 245.024 219.892 245.276C220.096 245.516 220.252 245.798 220.36 246.122C220.48 246.434 220.54 246.782 220.54 247.166C220.54 247.958 220.342 248.654 219.946 249.254C219.55 249.854 219.004 250.322 218.308 250.658C217.612 250.994 216.796 251.162 215.86 251.162Z" fill="#303B59"/>
</g>
<g clip-path="url(#clip2_1_70)">
<rect y="72" width="288" height="56" rx="12" fill="#FFB21E"/>
<rect y="72" width="288" height="56" rx="12" fill="white" fill-opacity="0.95"/>
<path d="M49.35 107V94.454H52.05L55.776 104.102H55.452L59.178 94.454H61.86V107H60.024V96.578L60.186 96.614L56.496 105.92H54.714L51.024 96.614L51.186 96.578V107H49.35ZM68.2451 107.162C67.5251 107.162 66.9011 107.042 66.3731 106.802C65.8451 106.562 65.4071 106.232 65.0591 105.812C64.7111 105.38 64.4471 104.894 64.2671 104.354C64.0991 103.802 64.0151 103.226 64.0151 102.626C64.0151 102.026 64.0991 101.45 64.2671 100.898C64.4351 100.334 64.6871 99.836 65.0231 99.404C65.3591 98.96 65.7791 98.612 66.2831 98.36C66.7991 98.096 67.4051 97.964 68.1011 97.964C68.7971 97.964 69.3971 98.084 69.9011 98.324C70.4051 98.552 70.8191 98.876 71.1431 99.296C71.4671 99.704 71.7071 100.166 71.8631 100.682C72.0311 101.198 72.1151 101.744 72.1151 102.32C72.1151 102.38 72.1091 102.494 72.0971 102.662C72.0971 102.818 72.0851 102.968 72.0611 103.112H65.7791C65.8151 103.904 66.0551 104.516 66.4991 104.948C66.9551 105.368 67.5551 105.578 68.2991 105.578C68.8031 105.578 69.2531 105.5 69.6491 105.344C70.0451 105.176 70.4111 104.918 70.7471 104.57L71.8271 105.686C71.4791 106.034 71.1191 106.316 70.7471 106.532C70.3871 106.748 70.0031 106.904 69.5951 107C69.1991 107.108 68.7491 107.162 68.2451 107.162ZM70.3691 102.23C70.3931 102.134 70.4051 102.038 70.4051 101.942C70.4171 101.846 70.4231 101.75 70.4231 101.654C70.4231 101.378 70.3751 101.108 70.2791 100.844C70.1831 100.58 70.0391 100.346 69.8471 100.142C69.6551 99.926 69.4151 99.758 69.1271 99.638C68.8511 99.506 68.5271 99.44 68.1551 99.44C67.6631 99.44 67.2431 99.554 66.8951 99.782C66.5471 99.998 66.2771 100.286 66.0851 100.646C65.9051 101.006 65.7971 101.396 65.7611 101.816H70.9451L70.3691 102.23ZM74.1498 107V98.126H75.9318V100.412L75.5538 100.538C75.6618 100.07 75.8118 99.674 76.0038 99.35C76.1958 99.026 76.4178 98.762 76.6698 98.558C76.9338 98.354 77.2158 98.204 77.5158 98.108C77.8158 98.012 78.1218 97.964 78.4338 97.964C78.9498 97.964 79.4118 98.066 79.8198 98.27C80.2398 98.462 80.5878 98.768 80.8638 99.188C81.1518 99.596 81.3438 100.136 81.4398 100.808L80.4318 101.006C80.6118 100.31 80.8458 99.74 81.1338 99.296C81.4338 98.852 81.7938 98.522 82.2138 98.306C82.6458 98.078 83.1378 97.964 83.6898 97.964C84.4338 97.964 85.0278 98.132 85.4718 98.468C85.9278 98.804 86.2578 99.242 86.4618 99.782C86.6778 100.31 86.7858 100.892 86.7858 101.528V107H85.0398V101.96C85.0398 101.444 84.9798 101.006 84.8598 100.646C84.7398 100.274 84.5538 99.992 84.3018 99.8C84.0498 99.596 83.7138 99.494 83.2938 99.494C82.8858 99.494 82.5378 99.602 82.2498 99.818C81.9618 100.022 81.7398 100.334 81.5838 100.754C81.4398 101.174 81.3678 101.696 81.3678 102.32V107H79.6038V101.852C79.6038 101.06 79.4538 100.472 79.1538 100.088C78.8658 99.692 78.4458 99.494 77.8938 99.494C77.4858 99.494 77.1318 99.602 76.8318 99.818C76.5438 100.022 76.3218 100.334 76.1658 100.754C76.0098 101.174 75.9318 101.696 75.9318 102.32V107H74.1498ZM93.1039 107.162C92.2639 107.162 91.5139 106.964 90.8539 106.568C90.1939 106.172 89.6719 105.626 89.2879 104.93C88.9159 104.234 88.7299 103.442 88.7299 102.554C88.7299 101.666 88.9159 100.88 89.2879 100.196C89.6599 99.5 90.1759 98.954 90.8359 98.558C91.5079 98.162 92.2639 97.964 93.1039 97.964C93.9559 97.964 94.7059 98.162 95.3539 98.558C96.0019 98.954 96.5119 99.5 96.8839 100.196C97.2679 100.88 97.4599 101.666 97.4599 102.554C97.4599 103.442 97.2679 104.234 96.8839 104.93C96.5119 105.614 95.9959 106.16 95.3359 106.568C94.6879 106.964 93.9439 107.162 93.1039 107.162ZM93.1039 105.596C93.6319 105.596 94.0879 105.47 94.4719 105.218C94.8679 104.966 95.1679 104.612 95.3719 104.156C95.5879 103.7 95.6959 103.166 95.6959 102.554C95.6959 101.93 95.5879 101.39 95.3719 100.934C95.1679 100.478 94.8679 100.13 94.4719 99.89C94.0879 99.638 93.6319 99.512 93.1039 99.512C92.5639 99.512 92.0959 99.638 91.6999 99.89C91.3159 100.142 91.0159 100.496 90.7999 100.952C90.5959 101.396 90.4939 101.93 90.4939 102.554C90.4939 103.166 90.5959 103.7 90.7999 104.156C91.0159 104.612 91.3159 104.966 91.6999 105.218C92.0959 105.47 92.5639 105.596 93.1039 105.596ZM99.4974 107V98.126H101.279V100.52L100.901 100.592C100.961 100.064 101.141 99.608 101.441 99.224C101.753 98.828 102.119 98.522 102.539 98.306C102.959 98.078 103.373 97.964 103.781 97.964C104.069 97.964 104.339 98 104.591 98.072C104.855 98.132 105.119 98.24 105.383 98.396L104.519 99.98C104.387 99.908 104.219 99.848 104.015 99.8C103.811 99.752 103.619 99.728 103.439 99.728C103.163 99.728 102.893 99.776 102.629 99.872C102.365 99.968 102.125 100.124 101.909 100.34C101.705 100.556 101.549 100.838 101.441 101.186C101.393 101.354 101.351 101.576 101.315 101.852C101.291 102.116 101.279 102.482 101.279 102.95V107H99.4974ZM107.761 110.654L109.489 106.478L106.069 98.126H108.013L110.425 104.714L112.873 98.126H114.781L109.687 110.654H107.761Z" fill="#FFB21E"/>
<path d="M21.8333 102.667C21.4695 102.667 21.1103 102.747 20.7806 102.901C20.4509 103.055 20.1587 103.278 19.9245 103.557C19.6902 103.835 19.5195 104.161 19.4243 104.512C19.329 104.863 19.3115 105.231 19.373 105.589C19.4345 105.948 19.5735 106.289 19.7803 106.588C19.9871 106.887 20.2567 107.138 20.5703 107.322C20.8839 107.506 21.234 107.62 21.5961 107.655C21.9581 107.69 22.3235 107.646 22.6666 107.525" stroke="#FFB21E" stroke-width="1.25" stroke-linecap="round" stroke-linejoin="round"/>
<path d="M19.5533 104.004C19.0546 103.764 18.6235 103.404 18.299 102.955C17.9745 102.507 17.7667 101.985 17.6944 101.436C17.6222 100.887 17.6877 100.329 17.885 99.8121C18.0824 99.295 18.4054 98.8352 18.825 98.4742M18.85 98.4067C18.5767 97.9977 18.4569 97.5052 18.5118 97.0164C18.5668 96.5276 18.7929 96.0741 19.1501 95.736C19.5074 95.3979 19.9727 95.1971 20.4638 95.1691C20.9549 95.1412 21.44 95.2879 21.8333 95.5833M22.0316 95.6375C21.8987 95.355 21.8309 95.0463 21.8334 94.7341C21.8358 94.422 21.9083 94.1143 22.0457 93.834C22.183 93.5536 22.3815 93.3077 22.6267 93.1144C22.8718 92.9211 23.1573 92.7854 23.4619 92.7172C23.7666 92.6491 24.0827 92.6503 24.3868 92.7208C24.6909 92.7912 24.9753 92.9291 25.219 93.1243C25.4627 93.3194 25.6594 93.5668 25.7945 93.8482C25.9297 94.1296 25.9999 94.4378 26 94.75V107.667C26 108.109 25.8244 108.533 25.5118 108.845C25.1993 109.158 24.7753 109.333 24.3333 109.333C23.8913 109.333 23.4674 109.158 23.1548 108.845C22.8422 108.533 22.6666 108.109 22.6666 107.667M26 96.8333C26 97.4964 26.2634 98.1323 26.7322 98.6011C27.201 99.0699 27.8369 99.3333 28.5 99.3333M30.1666 102.667C30.5304 102.667 30.8897 102.747 31.2193 102.901C31.549 103.055 31.8412 103.278 32.0755 103.557C32.3097 103.835 32.4804 104.161 32.5757 104.512C32.6709 104.863 32.6884 105.231 32.6269 105.589C32.5654 105.948 32.4264 106.289 32.2196 106.588C32.0128 106.887 31.7432 107.138 31.4296 107.322C31.116 107.506 30.7659 107.62 30.4039 107.655C30.0418 107.69 29.6765 107.646 29.3333 107.525" stroke="#FFB21E" stroke-width="1.25" stroke-linecap="round" stroke-linejoin="round"/>
<path d="M32.4467 104.004C32.9454 103.764 33.3764 103.404 33.701 102.955C34.0255 102.507 34.2333 101.985 34.3055 101.436C34.3778 100.887 34.3123 100.329 34.1149 99.8121C33.9176 99.295 33.5945 98.8352 33.175 98.4742M33.15 98.4067C33.4233 97.9977 33.5431 97.5052 33.4881 97.0164C33.4332 96.5276 33.2071 96.0741 32.8499 95.736C32.4926 95.3979 32.0272 95.1971 31.5362 95.1691C31.0451 95.1412 30.56 95.2879 30.1667 95.5833M26 94.75C26.0001 94.4378 26.0703 94.1296 26.2054 93.8482C26.3406 93.5668 26.5373 93.3194 26.781 93.1243C27.0246 92.9291 27.309 92.7912 27.6132 92.7208C27.9173 92.6503 28.2334 92.6491 28.538 92.7172C28.8427 92.7854 29.1281 92.9211 29.3733 93.1144C29.6184 93.3077 29.817 93.5536 29.9543 93.834C30.0916 94.1143 30.1642 94.422 30.1666 94.7341C30.169 95.0463 30.1013 95.355 29.9683 95.6375M29.3333 107.667C29.3333 108.109 29.1577 108.533 28.8452 108.845C28.5326 109.158 28.1087 109.333 27.6667 109.333C27.2246 109.333 26.8007 109.158 26.4882 108.845C26.1756 108.533 26 108.109 26 107.667" stroke="#FFB21E" stroke-width="1.25" stroke-linecap="round" stroke-linejoin="round"/>
<path opacity="0.5" d="M228.505 110.816L235.003 94.454H236.695L230.179 110.816H228.505ZM246.661 107V97.082L247.309 98.18H243.457V96.416H245.401C245.809 96.416 246.121 96.326 246.337 96.146C246.553 95.954 246.661 95.63 246.661 95.174V94.454H248.911V107H246.661ZM256.913 107.162C256.133 107.162 255.479 107.024 254.951 106.748C254.423 106.472 253.997 106.106 253.673 105.65C253.349 105.182 253.103 104.666 252.935 104.102C252.779 103.538 252.671 102.956 252.611 102.356C252.551 101.756 252.521 101.192 252.521 100.664C252.521 100.148 252.545 99.602 252.593 99.026C252.653 98.438 252.761 97.862 252.917 97.298C253.085 96.734 253.331 96.224 253.655 95.768C253.979 95.312 254.399 94.946 254.915 94.67C255.443 94.394 256.103 94.256 256.895 94.256C257.675 94.256 258.323 94.394 258.839 94.67C259.367 94.934 259.793 95.294 260.117 95.75C260.441 96.206 260.681 96.716 260.837 97.28C261.005 97.844 261.119 98.42 261.179 99.008C261.239 99.584 261.269 100.136 261.269 100.664C261.269 101.216 261.239 101.792 261.179 102.392C261.119 102.992 261.005 103.574 260.837 104.138C260.669 104.702 260.423 105.212 260.099 105.668C259.775 106.124 259.355 106.49 258.839 106.766C258.323 107.03 257.681 107.162 256.913 107.162ZM256.913 105.02C257.477 105.02 257.909 104.828 258.209 104.444C258.509 104.048 258.713 103.526 258.821 102.878C258.929 102.23 258.983 101.516 258.983 100.736C258.983 99.932 258.923 99.206 258.803 98.558C258.695 97.898 258.491 97.376 258.191 96.992C257.891 96.608 257.459 96.416 256.895 96.416C256.451 96.416 256.091 96.53 255.815 96.758C255.539 96.986 255.329 97.298 255.185 97.694C255.053 98.09 254.957 98.552 254.897 99.08C254.849 99.596 254.825 100.148 254.825 100.736C254.825 101.3 254.849 101.84 254.897 102.356C254.957 102.872 255.059 103.328 255.203 103.724C255.347 104.12 255.557 104.438 255.833 104.678C256.109 104.906 256.469 105.02 256.913 105.02ZM266.986 107.162C266.206 107.162 265.552 107.024 265.024 106.748C264.496 106.472 264.07 106.106 263.746 105.65C263.422 105.182 263.176 104.666 263.008 104.102C262.852 103.538 262.744 102.956 262.684 102.356C262.624 101.756 262.594 101.192 262.594 100.664C262.594 100.148 262.618 99.602 262.666 99.026C262.726 98.438 262.834 97.862 262.99 97.298C263.158 96.734 263.404 96.224 263.728 95.768C264.052 95.312 264.472 94.946 264.988 94.67C265.516 94.394 266.176 94.256 266.968 94.256C267.748 94.256 268.396 94.394 268.912 94.67C269.44 94.934 269.866 95.294 270.19 95.75C270.514 96.206 270.754 96.716 270.91 97.28C271.078 97.844 271.192 98.42 271.252 99.008C271.312 99.584 271.342 100.136 271.342 100.664C271.342 101.216 271.312 101.792 271.252 102.392C271.192 102.992 271.078 103.574 270.91 104.138C270.742 104.702 270.496 105.212 270.172 105.668C269.848 106.124 269.428 106.49 268.912 106.766C268.396 107.03 267.754 107.162 266.986 107.162ZM266.986 105.02C267.55 105.02 267.982 104.828 268.282 104.444C268.582 104.048 268.786 103.526 268.894 102.878C269.002 102.23 269.056 101.516 269.056 100.736C269.056 99.932 268.996 99.206 268.876 98.558C268.768 97.898 268.564 97.376 268.264 96.992C267.964 96.608 267.532 96.416 266.968 96.416C266.524 96.416 266.164 96.53 265.888 96.758C265.612 96.986 265.402 97.298 265.258 97.694C265.126 98.09 265.03 98.552 264.97 99.08C264.922 99.596 264.898 100.148 264.898 100.736C264.898 101.3 264.922 101.84 264.97 102.356C265.03 102.872 265.132 103.328 265.276 103.724C265.42 104.12 265.63 104.438 265.906 104.678C266.182 104.906 266.542 105.02 266.986 105.02Z" fill="#303B59"/>
<path d="M203.465 107L206.579 102.266L206.849 102.608C206.645 102.692 206.435 102.764 206.219 102.824C206.003 102.872 205.787 102.896 205.571 102.896C204.767 102.896 204.041 102.71 203.393 102.338C202.745 101.954 202.229 101.444 201.845 100.808C201.473 100.172 201.287 99.452 201.287 98.648C201.287 97.796 201.497 97.04 201.917 96.38C202.337 95.72 202.895 95.204 203.591 94.832C204.287 94.46 205.049 94.274 205.877 94.274C206.729 94.274 207.503 94.46 208.199 94.832C208.895 95.204 209.447 95.72 209.855 96.38C210.275 97.04 210.485 97.79 210.485 98.63C210.485 99.038 210.425 99.446 210.305 99.854C210.185 100.25 210.011 100.628 209.783 100.988L206.039 107H203.465ZM205.877 100.916C206.309 100.916 206.699 100.826 207.047 100.646C207.395 100.454 207.671 100.19 207.875 99.854C208.091 99.518 208.199 99.116 208.199 98.648C208.199 98.192 208.091 97.802 207.875 97.478C207.671 97.142 207.395 96.884 207.047 96.704C206.699 96.512 206.309 96.416 205.877 96.416C205.457 96.416 205.067 96.512 204.707 96.704C204.359 96.884 204.083 97.142 203.879 97.478C203.675 97.802 203.573 98.198 203.573 98.666C203.573 99.11 203.675 99.506 203.879 99.854C204.083 100.19 204.359 100.454 204.707 100.646C205.055 100.826 205.445 100.916 205.877 100.916ZM211.666 107V105.308C212.05 105.02 212.5 104.69 213.016 104.318C213.532 103.946 214.054 103.538 214.582 103.094C215.122 102.65 215.62 102.176 216.076 101.672C216.532 101.168 216.898 100.64 217.174 100.088C217.462 99.536 217.606 98.972 217.606 98.396C217.606 97.856 217.462 97.406 217.174 97.046C216.886 96.674 216.436 96.488 215.824 96.488C215.32 96.488 214.918 96.614 214.618 96.866C214.33 97.118 214.12 97.442 213.988 97.838C213.856 98.222 213.778 98.624 213.754 99.044L211.558 98.882C211.558 98.318 211.648 97.766 211.828 97.226C212.02 96.686 212.296 96.2 212.656 95.768C213.028 95.324 213.484 94.97 214.024 94.706C214.564 94.442 215.188 94.31 215.896 94.31C216.664 94.31 217.342 94.478 217.93 94.814C218.53 95.15 218.998 95.618 219.334 96.218C219.67 96.818 219.838 97.52 219.838 98.324C219.838 98.948 219.73 99.554 219.514 100.142C219.31 100.73 219.016 101.294 218.632 101.834C218.248 102.374 217.792 102.884 217.264 103.364C216.736 103.844 216.148 104.294 215.5 104.714C214.852 105.122 214.168 105.494 213.448 105.83L214.042 104.912H220.324V107H211.666Z" fill="#303B59"/>
</g>
<g clip-path="url(#clip3_1_70)">
<rect y="144" width="288" height="56" rx="12" fill="#00BB8F"/>
<rect y="144" width="288" height="56" rx="12" fill="white" fill-opacity="0.95"/>
<path d="M23.5 172H28.5M26 180.333C30.6025 180.333 34.3333 176.602 34.3333 172C34.3333 167.398 30.6025 163.667 26 163.667C21.3975 163.667 17.6666 167.398 17.6666 172C17.6666 173.518 18.0725 174.942 18.7816 176.167L18.0833 179.917L21.8333 179.218C23.0996 179.951 24.5371 180.336 26 180.333Z" stroke="#00BB8F" stroke-width="1.25" stroke-linecap="round" stroke-linejoin="round"/>
<path d="M53.274 179L48.252 166.454H50.268L54.246 176.768H53.706L57.63 166.454H59.646L54.66 179H53.274ZM63.6923 179.162C62.9723 179.162 62.3483 179.042 61.8203 178.802C61.2923 178.562 60.8543 178.232 60.5063 177.812C60.1583 177.38 59.8943 176.894 59.7143 176.354C59.5463 175.802 59.4623 175.226 59.4623 174.626C59.4623 174.026 59.5463 173.45 59.7143 172.898C59.8823 172.334 60.1343 171.836 60.4703 171.404C60.8063 170.96 61.2263 170.612 61.7303 170.36C62.2463 170.096 62.8523 169.964 63.5483 169.964C64.2443 169.964 64.8443 170.084 65.3483 170.324C65.8523 170.552 66.2663 170.876 66.5903 171.296C66.9143 171.704 67.1543 172.166 67.3103 172.682C67.4783 173.198 67.5623 173.744 67.5623 174.32C67.5623 174.38 67.5563 174.494 67.5443 174.662C67.5443 174.818 67.5323 174.968 67.5083 175.112H61.2263C61.2623 175.904 61.5023 176.516 61.9463 176.948C62.4023 177.368 63.0023 177.578 63.7463 177.578C64.2503 177.578 64.7003 177.5 65.0963 177.344C65.4923 177.176 65.8583 176.918 66.1943 176.57L67.2743 177.686C66.9263 178.034 66.5663 178.316 66.1943 178.532C65.8343 178.748 65.4503 178.904 65.0423 179C64.6463 179.108 64.1963 179.162 63.6923 179.162ZM65.8163 174.23C65.8403 174.134 65.8523 174.038 65.8523 173.942C65.8643 173.846 65.8703 173.75 65.8703 173.654C65.8703 173.378 65.8223 173.108 65.7263 172.844C65.6303 172.58 65.4863 172.346 65.2943 172.142C65.1023 171.926 64.8623 171.758 64.5743 171.638C64.2983 171.506 63.9743 171.44 63.6023 171.44C63.1103 171.44 62.6903 171.554 62.3423 171.782C61.9943 171.998 61.7243 172.286 61.5323 172.646C61.3523 173.006 61.2443 173.396 61.2083 173.816H66.3923L65.8163 174.23ZM69.597 179V170.126H71.379V172.52L71.001 172.592C71.061 172.064 71.241 171.608 71.541 171.224C71.853 170.828 72.219 170.522 72.639 170.306C73.059 170.078 73.473 169.964 73.881 169.964C74.169 169.964 74.439 170 74.691 170.072C74.955 170.132 75.219 170.24 75.483 170.396L74.619 171.98C74.487 171.908 74.319 171.848 74.115 171.8C73.911 171.752 73.719 171.728 73.539 171.728C73.263 171.728 72.993 171.776 72.729 171.872C72.465 171.968 72.225 172.124 72.009 172.34C71.805 172.556 71.649 172.838 71.541 173.186C71.493 173.354 71.451 173.576 71.415 173.852C71.391 174.116 71.379 174.482 71.379 174.95V179H69.597ZM81.5326 179.162C81.0046 179.162 80.5186 179.06 80.0746 178.856C79.6426 178.64 79.2706 178.334 78.9586 177.938C78.6586 177.53 78.4306 177.038 78.2746 176.462L78.7966 176.444V179H77.0326V166.454H78.7966V172.682L78.3466 172.574C78.4666 172.058 78.6766 171.608 78.9766 171.224C79.2766 170.828 79.6426 170.522 80.0746 170.306C80.5186 170.078 81.0046 169.964 81.5326 169.964C82.2646 169.964 82.9306 170.15 83.5306 170.522C84.1306 170.894 84.6046 171.422 84.9526 172.106C85.3006 172.79 85.4746 173.606 85.4746 174.554C85.4746 175.418 85.3126 176.204 84.9886 176.912C84.6646 177.608 84.2026 178.16 83.6026 178.568C83.0146 178.964 82.3246 179.162 81.5326 179.162ZM81.1546 177.542C81.6706 177.542 82.1146 177.416 82.4866 177.164C82.8706 176.912 83.1706 176.564 83.3866 176.12C83.6026 175.664 83.7106 175.142 83.7106 174.554C83.7106 173.966 83.6026 173.45 83.3866 173.006C83.1706 172.55 82.8706 172.202 82.4866 171.962C82.1146 171.71 81.6706 171.584 81.1546 171.584C80.6506 171.584 80.2066 171.71 79.8226 171.962C79.4506 172.202 79.1566 172.55 78.9406 173.006C78.7366 173.45 78.6346 173.966 78.6346 174.554C78.6346 175.142 78.7366 175.664 78.9406 176.12C79.1566 176.564 79.4506 176.912 79.8226 177.164C80.2066 177.416 80.6506 177.542 81.1546 177.542ZM93.3227 179L93.1787 177.362V173.42C93.1787 172.796 92.9987 172.316 92.6387 171.98C92.2787 171.644 91.7567 171.476 91.0727 171.476C90.5927 171.476 90.1307 171.572 89.6867 171.764C89.2547 171.956 88.8407 172.268 88.4447 172.7L87.3467 171.566C87.8747 171.014 88.4567 170.612 89.0927 170.36C89.7407 170.096 90.4427 169.964 91.1987 169.964C92.3867 169.964 93.3047 170.27 93.9527 170.882C94.6127 171.482 94.9427 172.328 94.9427 173.42V179H93.3227ZM90.4607 179.162C89.8007 179.162 89.2187 179.042 88.7147 178.802C88.2107 178.562 87.8207 178.232 87.5447 177.812C87.2687 177.38 87.1307 176.882 87.1307 176.318C87.1307 175.826 87.2327 175.406 87.4367 175.058C87.6407 174.698 87.9047 174.422 88.2287 174.23C88.5287 174.038 88.8707 173.906 89.2547 173.834C89.6507 173.75 90.0707 173.708 90.5147 173.708H93.3407V175.04H90.7667C90.5267 175.04 90.2747 175.064 90.0107 175.112C89.7587 175.148 89.5427 175.232 89.3627 175.364C89.2187 175.472 89.1047 175.61 89.0207 175.778C88.9367 175.934 88.8947 176.12 88.8947 176.336C88.8947 176.756 89.0567 177.092 89.3807 177.344C89.7047 177.596 90.1367 177.722 90.6767 177.722C91.1327 177.722 91.5467 177.62 91.9187 177.416C92.3027 177.2 92.6087 176.912 92.8367 176.552C93.0647 176.18 93.1787 175.76 93.1787 175.292L93.8087 176.12C93.7007 176.744 93.4907 177.29 93.1787 177.758C92.8667 178.214 92.4767 178.562 92.0087 178.802C91.5527 179.042 91.0367 179.162 90.4607 179.162ZM99.1726 179.162C98.6086 179.162 98.1466 178.988 97.7866 178.64C97.4266 178.292 97.2466 177.74 97.2466 176.984V166.454H98.9926V176.642C98.9926 176.954 99.0586 177.182 99.1906 177.326C99.3346 177.458 99.5206 177.524 99.7486 177.524C99.8446 177.524 99.9526 177.518 100.073 177.506C100.205 177.482 100.337 177.446 100.469 177.398V178.892C100.253 178.988 100.025 179.054 99.7846 179.09C99.5566 179.138 99.3526 179.162 99.1726 179.162Z" fill="#00BB8F"/>
<path opacity="0.5" d="M228.505 182.816L235.003 166.454H236.695L230.179 182.816H228.505ZM246.661 179V169.082L247.309 170.18H243.457V168.416H245.401C245.809 168.416 246.121 168.326 246.337 168.146C246.553 167.954 246.661 167.63 246.661 167.174V166.454H248.911V179H246.661ZM256.913 179.162C256.133 179.162 255.479 179.024 254.951 178.748C254.423 178.472 253.997 178.106 253.673 177.65C253.349 177.182 253.103 176.666 252.935 176.102C252.779 175.538 252.671 174.956 252.611 174.356C252.551 173.756 252.521 173.192 252.521 172.664C252.521 172.148 252.545 171.602 252.593 171.026C252.653 170.438 252.761 169.862 252.917 169.298C253.085 168.734 253.331 168.224 253.655 167.768C253.979 167.312 254.399 166.946 254.915 166.67C255.443 166.394 256.103 166.256 256.895 166.256C257.675 166.256 258.323 166.394 258.839 166.67C259.367 166.934 259.793 167.294 260.117 167.75C260.441 168.206 260.681 168.716 260.837 169.28C261.005 169.844 261.119 170.42 261.179 171.008C261.239 171.584 261.269 172.136 261.269 172.664C261.269 173.216 261.239 173.792 261.179 174.392C261.119 174.992 261.005 175.574 260.837 176.138C260.669 176.702 260.423 177.212 260.099 177.668C259.775 178.124 259.355 178.49 258.839 178.766C258.323 179.03 257.681 179.162 256.913 179.162ZM256.913 177.02C257.477 177.02 257.909 176.828 258.209 176.444C258.509 176.048 258.713 175.526 258.821 174.878C258.929 174.23 258.983 173.516 258.983 172.736C258.983 171.932 258.923 171.206 258.803 170.558C258.695 169.898 258.491 169.376 258.191 168.992C257.891 168.608 257.459 168.416 256.895 168.416C256.451 168.416 256.091 168.53 255.815 168.758C255.539 168.986 255.329 169.298 255.185 169.694C255.053 170.09 254.957 170.552 254.897 171.08C254.849 171.596 254.825 172.148 254.825 172.736C254.825 173.3 254.849 173.84 254.897 174.356C254.957 174.872 255.059 175.328 255.203 175.724C255.347 176.12 255.557 176.438 255.833 176.678C256.109 176.906 256.469 177.02 256.913 177.02ZM266.986 179.162C266.206 179.162 265.552 179.024 265.024 178.748C264.496 178.472 264.07 178.106 263.746 177.65C263.422 177.182 263.176 176.666 263.008 176.102C262.852 175.538 262.744 174.956 262.684 174.356C262.624 173.756 262.594 173.192 262.594 172.664C262.594 172.148 262.618 171.602 262.666 171.026C262.726 170.438 262.834 169.862 262.99 169.298C263.158 168.734 263.404 168.224 263.728 167.768C264.052 167.312 264.472 166.946 264.988 166.67C265.516 166.394 266.176 166.256 266.968 166.256C267.748 166.256 268.396 166.394 268.912 166.67C269.44 166.934 269.866 167.294 270.19 167.75C270.514 168.206 270.754 168.716 270.91 169.28C271.078 169.844 271.192 170.42 271.252 171.008C271.312 171.584 271.342 172.136 271.342 172.664C271.342 173.216 271.312 173.792 271.252 174.392C271.192 174.992 271.078 175.574 270.91 176.138C270.742 176.702 270.496 177.212 270.172 177.668C269.848 178.124 269.428 178.49 268.912 178.766C268.396 179.03 267.754 179.162 266.986 179.162ZM266.986 177.02C267.55 177.02 267.982 176.828 268.282 176.444C268.582 176.048 268.786 175.526 268.894 174.878C269.002 174.23 269.056 173.516 269.056 172.736C269.056 171.932 268.996 171.206 268.876 170.558C268.768 169.898 268.564 169.376 268.264 168.992C267.964 168.608 267.532 168.416 266.968 168.416C266.524 168.416 266.164 168.53 265.888 168.758C265.612 168.986 265.402 169.298 265.258 169.694C265.126 170.09 265.03 170.552 264.97 171.08C264.922 171.596 264.898 172.148 264.898 172.736C264.898 173.3 264.922 173.84 264.97 174.356C265.03 174.872 265.132 175.328 265.276 175.724C265.42 176.12 265.63 176.438 265.906 176.678C266.182 176.906 266.542 177.02 266.986 177.02Z" fill="#303B59"/>
<path d="M208.181 166.454L205.067 171.188L204.797 170.846C205.001 170.762 205.211 170.696 205.427 170.648C205.643 170.588 205.859 170.558 206.075 170.558C206.879 170.558 207.605 170.75 208.253 171.134C208.901 171.506 209.411 172.01 209.783 172.646C210.155 173.282 210.341 174.002 210.341 174.806C210.341 175.658 210.131 176.414 209.711 177.074C209.303 177.734 208.751 178.25 208.055 178.622C207.371 178.994 206.609 179.18 205.769 179.18C204.929 179.18 204.155 178.994 203.447 178.622C202.751 178.25 202.193 177.734 201.773 177.074C201.353 176.414 201.143 175.664 201.143 174.824C201.143 174.404 201.203 173.996 201.323 173.6C201.455 173.192 201.635 172.814 201.863 172.466L205.589 166.454H208.181ZM205.769 172.538C205.337 172.538 204.947 172.634 204.599 172.826C204.251 173.006 203.969 173.264 203.753 173.6C203.549 173.936 203.447 174.338 203.447 174.806C203.447 175.25 203.549 175.64 203.753 175.976C203.957 176.312 204.233 176.576 204.581 176.768C204.941 176.948 205.337 177.038 205.769 177.038C206.189 177.038 206.573 176.948 206.921 176.768C207.269 176.576 207.545 176.312 207.749 175.976C207.965 175.64 208.073 175.244 208.073 174.788C208.073 174.332 207.971 173.936 207.767 173.6C207.563 173.264 207.287 173.006 206.939 172.826C206.591 172.634 206.201 172.538 205.769 172.538ZM215.806 179V169.082L216.454 170.18H212.602V168.416H214.546C214.954 168.416 215.266 168.326 215.482 168.146C215.698 167.954 215.806 167.63 215.806 167.174V166.454H218.056V179H215.806Z" fill="#303B59"/>
</g>
<defs>
<clipPath id="clip0_1_70">
<rect width="288" height="56" fill="white"/>
</clipPath>
<clipPath id="clip1_1_70">
<rect width="288" height="56" fill="white" transform="translate(0 216)"/>
</clipPath>
<clipPath id="clip2_1_70">
<rect width="288" height="56" fill="white" transform="translate(0 72)"/>
</clipPath>
<clipPath id="clip3_1_70">
<rect width="288" height="56" fill="white" transform="translate(0 144)"/>
</clipPath>
</defs>
</svg>
