<svg width="81" height="99" viewBox="0 0 81 99" fill="none" xmlns="http://www.w3.org/2000/svg">
<path d="M6.04294 61L28.6509 16.144L31.4589 20.032H2.22694V10.816H38.5149V17.944L17.0589 61H6.04294ZM70.884 10.816L58.572 29.248L57.348 27.664C58.116 27.472 58.86 27.304 59.58 27.16C60.3 27.016 61.044 26.944 61.812 26.944C65.076 26.944 68.004 27.712 70.596 29.248C73.236 30.736 75.3 32.776 76.788 35.368C78.324 37.912 79.092 40.792 79.092 44.008C79.092 47.512 78.228 50.608 76.5 53.296C74.82 55.936 72.564 58 69.732 59.488C66.948 60.976 63.852 61.72 60.444 61.72C57.036 61.72 53.892 60.976 51.012 59.488C48.18 58 45.9 55.936 44.172 53.296C42.492 50.608 41.652 47.536 41.652 44.08C41.652 42.448 41.892 40.816 42.372 39.184C42.9 37.552 43.62 36.016 44.532 34.576L59.436 10.816H70.884ZM60.444 35.728C58.86 35.728 57.396 36.064 56.052 36.736C54.756 37.408 53.724 38.368 52.956 39.616C52.188 40.816 51.804 42.28 51.804 44.008C51.804 45.736 52.188 47.224 52.956 48.472C53.724 49.672 54.756 50.608 56.052 51.28C57.348 51.952 58.812 52.288 60.444 52.288C62.028 52.288 63.468 51.952 64.764 51.28C66.06 50.608 67.092 49.672 67.86 48.472C68.628 47.224 69.012 45.736 69.012 44.008C69.012 42.28 68.628 40.816 67.86 39.616C67.092 38.368 66.06 37.408 64.764 36.736C63.468 36.064 62.028 35.728 60.444 35.728Z" fill="white"/>
<path opacity="0.516811" d="M19.166 94.18C18.302 94.18 17.534 93.982 16.862 93.586C16.19 93.19 15.656 92.644 15.26 91.948C14.876 91.24 14.684 90.442 14.684 89.554C14.684 88.654 14.876 87.862 15.26 87.178C15.644 86.482 16.172 85.936 16.844 85.54C17.528 85.144 18.302 84.946 19.166 84.946C20.018 84.946 20.78 85.144 21.452 85.54C22.124 85.936 22.652 86.482 23.036 87.178C23.42 87.862 23.612 88.654 23.612 89.554C23.612 90.442 23.42 91.234 23.036 91.93C22.652 92.626 22.124 93.178 21.452 93.586C20.78 93.982 20.018 94.18 19.166 94.18ZM19.166 92.218C19.622 92.218 20.012 92.11 20.336 91.894C20.672 91.678 20.924 91.372 21.092 90.976C21.272 90.58 21.362 90.106 21.362 89.554C21.362 88.99 21.272 88.516 21.092 88.132C20.924 87.736 20.672 87.436 20.336 87.232C20.012 87.016 19.622 86.908 19.166 86.908C18.698 86.908 18.296 87.016 17.96 87.232C17.624 87.436 17.366 87.736 17.186 88.132C17.006 88.516 16.916 88.99 16.916 89.554C16.916 90.106 17.006 90.58 17.186 90.976C17.366 91.372 17.624 91.678 17.96 91.894C18.296 92.11 18.698 92.218 19.166 92.218ZM26.0125 94V86.872H24.4105V85.126H26.0305V84.19C26.0305 83.422 26.1565 82.828 26.4085 82.408C26.6605 81.988 26.9965 81.694 27.4165 81.526C27.8485 81.358 28.3105 81.274 28.8025 81.274C29.1745 81.274 29.4925 81.31 29.7565 81.382C30.0325 81.442 30.2965 81.532 30.5485 81.652L29.8285 83.362C29.7085 83.302 29.5825 83.254 29.4505 83.218C29.3185 83.17 29.1865 83.146 29.0545 83.146C28.7665 83.146 28.5625 83.242 28.4425 83.434C28.3225 83.626 28.2625 83.884 28.2625 84.208V85.126H30.1525V86.872H28.2625V94H26.0125ZM40.0421 94V84.082L40.6901 85.18H36.8381V83.416H38.7821C39.1901 83.416 39.5021 83.326 39.7181 83.146C39.9341 82.954 40.0421 82.63 40.0421 82.174V81.454H42.2921V94H40.0421ZM50.2943 94.162C49.5143 94.162 48.8603 94.024 48.3323 93.748C47.8043 93.472 47.3783 93.106 47.0543 92.65C46.7303 92.182 46.4843 91.666 46.3163 91.102C46.1603 90.538 46.0523 89.956 45.9923 89.356C45.9323 88.756 45.9023 88.192 45.9023 87.664C45.9023 87.148 45.9263 86.602 45.9743 86.026C46.0343 85.438 46.1423 84.862 46.2983 84.298C46.4663 83.734 46.7123 83.224 47.0363 82.768C47.3603 82.312 47.7803 81.946 48.2963 81.67C48.8243 81.394 49.4843 81.256 50.2763 81.256C51.0563 81.256 51.7043 81.394 52.2203 81.67C52.7483 81.934 53.1743 82.294 53.4983 82.75C53.8223 83.206 54.0623 83.716 54.2183 84.28C54.3863 84.844 54.5003 85.42 54.5603 86.008C54.6203 86.584 54.6503 87.136 54.6503 87.664C54.6503 88.216 54.6203 88.792 54.5603 89.392C54.5003 89.992 54.3863 90.574 54.2183 91.138C54.0503 91.702 53.8043 92.212 53.4803 92.668C53.1563 93.124 52.7363 93.49 52.2203 93.766C51.7043 94.03 51.0623 94.162 50.2943 94.162ZM50.2943 92.02C50.8583 92.02 51.2903 91.828 51.5903 91.444C51.8903 91.048 52.0943 90.526 52.2023 89.878C52.3103 89.23 52.3643 88.516 52.3643 87.736C52.3643 86.932 52.3043 86.206 52.1843 85.558C52.0763 84.898 51.8723 84.376 51.5723 83.992C51.2723 83.608 50.8403 83.416 50.2763 83.416C49.8323 83.416 49.4723 83.53 49.1963 83.758C48.9203 83.986 48.7103 84.298 48.5663 84.694C48.4343 85.09 48.3383 85.552 48.2783 86.08C48.2303 86.596 48.2063 87.148 48.2063 87.736C48.2063 88.3 48.2303 88.84 48.2783 89.356C48.3383 89.872 48.4403 90.328 48.5843 90.724C48.7283 91.12 48.9383 91.438 49.2143 91.678C49.4903 91.906 49.8503 92.02 50.2943 92.02ZM60.3666 94.162C59.5866 94.162 58.9326 94.024 58.4046 93.748C57.8766 93.472 57.4506 93.106 57.1266 92.65C56.8026 92.182 56.5566 91.666 56.3886 91.102C56.2326 90.538 56.1246 89.956 56.0646 89.356C56.0046 88.756 55.9746 88.192 55.9746 87.664C55.9746 87.148 55.9986 86.602 56.0466 86.026C56.1066 85.438 56.2146 84.862 56.3706 84.298C56.5386 83.734 56.7846 83.224 57.1086 82.768C57.4326 82.312 57.8526 81.946 58.3686 81.67C58.8966 81.394 59.5566 81.256 60.3486 81.256C61.1286 81.256 61.7766 81.394 62.2926 81.67C62.8206 81.934 63.2466 82.294 63.5706 82.75C63.8946 83.206 64.1346 83.716 64.2906 84.28C64.4586 84.844 64.5726 85.42 64.6326 86.008C64.6926 86.584 64.7226 87.136 64.7226 87.664C64.7226 88.216 64.6926 88.792 64.6326 89.392C64.5726 89.992 64.4586 90.574 64.2906 91.138C64.1226 91.702 63.8766 92.212 63.5526 92.668C63.2286 93.124 62.8086 93.49 62.2926 93.766C61.7766 94.03 61.1346 94.162 60.3666 94.162ZM60.3666 92.02C60.9306 92.02 61.3626 91.828 61.6626 91.444C61.9626 91.048 62.1666 90.526 62.2746 89.878C62.3826 89.23 62.4366 88.516 62.4366 87.736C62.4366 86.932 62.3766 86.206 62.2566 85.558C62.1486 84.898 61.9446 84.376 61.6446 83.992C61.3446 83.608 60.9126 83.416 60.3486 83.416C59.9046 83.416 59.5446 83.53 59.2686 83.758C58.9926 83.986 58.7826 84.298 58.6386 84.694C58.5066 85.09 58.4106 85.552 58.3506 86.08C58.3026 86.596 58.2786 87.148 58.2786 87.736C58.2786 88.3 58.3026 88.84 58.3506 89.356C58.4106 89.872 58.5126 90.328 58.6566 90.724C58.8006 91.12 59.0106 91.438 59.2866 91.678C59.5626 91.906 59.9226 92.02 60.3666 92.02Z" fill="#CAC9FF"/>
</svg>
